<mxfile host="Electron" modified="2024-07-16T06:07:02.667Z" agent="Mozilla/5.0 (Windows NT 10.0; Win64; x64) AppleWebKit/537.36 (KHTML, like Gecko) draw.io/22.1.2 Chrome/114.0.5735.289 Electron/25.9.4 Safari/537.36" etag="M0iP1c5Gyf1lVC6EaRju" version="22.1.2" type="device">
  <diagram name="Page-1" id="uclxrVIyvxzbgrs4n_kn">
    <mxGraphModel dx="2044" dy="1167" grid="1" gridSize="10" guides="1" tooltips="1" connect="1" arrows="1" fold="1" page="1" pageScale="1" pageWidth="850" pageHeight="1100" math="0" shadow="0">
      <root>
        <mxCell id="0" />
        <mxCell id="1" parent="0" />
        <mxCell id="K4JtjdHQnZVgsgKk39SZ-5" style="edgeStyle=orthogonalEdgeStyle;rounded=0;orthogonalLoop=1;jettySize=auto;html=1;exitX=1;exitY=0.5;exitDx=0;exitDy=0;entryX=0;entryY=0.5;entryDx=0;entryDy=0;" edge="1" parent="1" source="K4JtjdHQnZVgsgKk39SZ-1" target="K4JtjdHQnZVgsgKk39SZ-2">
          <mxGeometry relative="1" as="geometry" />
        </mxCell>
        <mxCell id="K4JtjdHQnZVgsgKk39SZ-1" value="from: nat_ip_client&lt;br&gt;to:fake_ip_server" style="rounded=0;whiteSpace=wrap;html=1;" vertex="1" parent="1">
          <mxGeometry x="10" y="190" width="120" height="60" as="geometry" />
        </mxCell>
        <mxCell id="K4JtjdHQnZVgsgKk39SZ-6" style="edgeStyle=orthogonalEdgeStyle;rounded=0;orthogonalLoop=1;jettySize=auto;html=1;exitX=1;exitY=0.5;exitDx=0;exitDy=0;entryX=0;entryY=0.5;entryDx=0;entryDy=0;" edge="1" parent="1" source="K4JtjdHQnZVgsgKk39SZ-2" target="K4JtjdHQnZVgsgKk39SZ-3">
          <mxGeometry relative="1" as="geometry" />
        </mxCell>
        <mxCell id="K4JtjdHQnZVgsgKk39SZ-2" value="gateway" style="rounded=0;whiteSpace=wrap;html=1;" vertex="1" parent="1">
          <mxGeometry x="235" y="190" width="120" height="60" as="geometry" />
        </mxCell>
        <mxCell id="K4JtjdHQnZVgsgKk39SZ-7" style="edgeStyle=orthogonalEdgeStyle;rounded=0;orthogonalLoop=1;jettySize=auto;html=1;exitX=1;exitY=0.5;exitDx=0;exitDy=0;entryX=0;entryY=0.5;entryDx=0;entryDy=0;" edge="1" parent="1" source="K4JtjdHQnZVgsgKk39SZ-3" target="K4JtjdHQnZVgsgKk39SZ-4">
          <mxGeometry relative="1" as="geometry" />
        </mxCell>
        <mxCell id="K4JtjdHQnZVgsgKk39SZ-3" value="gateway" style="rounded=0;whiteSpace=wrap;html=1;" vertex="1" parent="1">
          <mxGeometry x="480" y="190" width="120" height="60" as="geometry" />
        </mxCell>
        <mxCell id="K4JtjdHQnZVgsgKk39SZ-19" style="edgeStyle=orthogonalEdgeStyle;rounded=0;orthogonalLoop=1;jettySize=auto;html=1;exitX=0.5;exitY=1;exitDx=0;exitDy=0;" edge="1" parent="1" source="K4JtjdHQnZVgsgKk39SZ-4" target="K4JtjdHQnZVgsgKk39SZ-18">
          <mxGeometry relative="1" as="geometry" />
        </mxCell>
        <mxCell id="K4JtjdHQnZVgsgKk39SZ-4" value="from: fake_ip_client&lt;br&gt;to:nat_ip_server" style="rounded=0;whiteSpace=wrap;html=1;" vertex="1" parent="1">
          <mxGeometry x="680" y="190" width="120" height="60" as="geometry" />
        </mxCell>
        <mxCell id="K4JtjdHQnZVgsgKk39SZ-9" value="from: fake_ip_server&lt;br&gt;to:nat_ip_client" style="rounded=0;whiteSpace=wrap;html=1;" vertex="1" parent="1">
          <mxGeometry x="10" y="420" width="120" height="60" as="geometry" />
        </mxCell>
        <mxCell id="K4JtjdHQnZVgsgKk39SZ-17" style="edgeStyle=orthogonalEdgeStyle;rounded=0;orthogonalLoop=1;jettySize=auto;html=1;exitX=0;exitY=0.5;exitDx=0;exitDy=0;entryX=1;entryY=0.5;entryDx=0;entryDy=0;" edge="1" parent="1" source="K4JtjdHQnZVgsgKk39SZ-11" target="K4JtjdHQnZVgsgKk39SZ-9">
          <mxGeometry relative="1" as="geometry" />
        </mxCell>
        <mxCell id="K4JtjdHQnZVgsgKk39SZ-11" value="gateway" style="rounded=0;whiteSpace=wrap;html=1;" vertex="1" parent="1">
          <mxGeometry x="235" y="420" width="120" height="60" as="geometry" />
        </mxCell>
        <mxCell id="K4JtjdHQnZVgsgKk39SZ-16" style="edgeStyle=orthogonalEdgeStyle;rounded=0;orthogonalLoop=1;jettySize=auto;html=1;exitX=0;exitY=0.5;exitDx=0;exitDy=0;entryX=1;entryY=0.5;entryDx=0;entryDy=0;" edge="1" parent="1" source="K4JtjdHQnZVgsgKk39SZ-13" target="K4JtjdHQnZVgsgKk39SZ-11">
          <mxGeometry relative="1" as="geometry" />
        </mxCell>
        <mxCell id="K4JtjdHQnZVgsgKk39SZ-13" value="gateway" style="rounded=0;whiteSpace=wrap;html=1;" vertex="1" parent="1">
          <mxGeometry x="480" y="420" width="120" height="60" as="geometry" />
        </mxCell>
        <mxCell id="K4JtjdHQnZVgsgKk39SZ-15" style="edgeStyle=orthogonalEdgeStyle;rounded=0;orthogonalLoop=1;jettySize=auto;html=1;exitX=0;exitY=0.5;exitDx=0;exitDy=0;" edge="1" parent="1" source="K4JtjdHQnZVgsgKk39SZ-14" target="K4JtjdHQnZVgsgKk39SZ-13">
          <mxGeometry relative="1" as="geometry" />
        </mxCell>
        <mxCell id="K4JtjdHQnZVgsgKk39SZ-14" value="from: nat_ip_server&lt;br&gt;to:fake_ip_client" style="rounded=0;whiteSpace=wrap;html=1;" vertex="1" parent="1">
          <mxGeometry x="680" y="420" width="120" height="60" as="geometry" />
        </mxCell>
        <mxCell id="K4JtjdHQnZVgsgKk39SZ-20" style="edgeStyle=orthogonalEdgeStyle;rounded=0;orthogonalLoop=1;jettySize=auto;html=1;exitX=0.5;exitY=1;exitDx=0;exitDy=0;entryX=0.5;entryY=0;entryDx=0;entryDy=0;" edge="1" parent="1" source="K4JtjdHQnZVgsgKk39SZ-18" target="K4JtjdHQnZVgsgKk39SZ-14">
          <mxGeometry relative="1" as="geometry" />
        </mxCell>
        <mxCell id="K4JtjdHQnZVgsgKk39SZ-18" value="server_process" style="shape=parallelogram;perimeter=parallelogramPerimeter;whiteSpace=wrap;html=1;fixedSize=1;" vertex="1" parent="1">
          <mxGeometry x="680" y="300" width="120" height="60" as="geometry" />
        </mxCell>
      </root>
    </mxGraphModel>
  </diagram>
</mxfile>
